<?xml version="1.0" standalone="no"?>
<!DOCTYPE svg PUBLIC "-//W3C//DTD SVG 20010904//EN"
 "http://www.w3.org/TR/2001/REC-SVG-20010904/DTD/svg10.dtd">
<svg version="1.0" xmlns="http://www.w3.org/2000/svg"
 width="16.000000pt" height="16.000000pt" viewBox="0 0 16.000000 16.000000"
 preserveAspectRatio="xMidYMid meet">
<metadata>
Created by potrace 1.11, written by Peter Selinger 2001-2013
</metadata>
<g transform="translate(0.000000,16.000000) scale(0.002286,-0.002286)"
fill="#000000" stroke="none">
<path d="M3250 6984 c-463 -41 -867 -148 -1255 -334 -1023 -487 -1758 -1458
-1944 -2565 -37 -223 -46 -335 -45 -600 0 -210 4 -292 22 -425 108 -801 467
-1516 1038 -2070 777 -754 1859 -1104 2929 -949 1158 167 2154 905 2659 1971
469 989 441 2154 -77 3122 -173 324 -349 559 -621 831 -193 193 -327 304 -531
439 -468 310 -934 484 -1510 561 -115 16 -560 28 -665 19z m-1147 -2070 c1031
-400 1123 -428 1402 -427 275 0 376 30 1337 401 430 166 470 180 502 171 43
-12 91 -51 111 -90 22 -41 23 -2992 1 -3042 -21 -50 -50 -70 -110 -75 -78 -6
-117 14 -523 276 l-352 227 -1 612 0 612 -37 26 c-62 42 -91 35 -248 -56 -382
-220 -529 -281 -675 -282 -48 0 -114 7 -150 17 -84 21 -280 117 -495 241 -204
118 -240 127 -298 75 l-37 -32 0 -607 0 -608 -374 -241 c-206 -133 -386 -246
-401 -252 -43 -16 -117 -12 -152 10 -18 10 -40 34 -50 52 -17 31 -18 110 -21
1508 -2 1007 0 1486 8 1511 5 20 20 49 32 64 20 26 89 64 116 65 7 0 194 -70
415 -156z m859 -1758 l158 -101 0 -315 c0 -329 1 -340 42 -340 11 0 55 21 100
47 210 121 266 121 476 0 45 -26 89 -47 100 -47 41 0 42 11 42 337 l0 314 143
93 c79 51 154 99 166 106 35 18 67 -1 81 -47 16 -56 10 -1337 -7 -1354 -21
-21 -63 -12 -293 66 -345 116 -433 135 -555 115 -38 -6 -190 -51 -336 -100
-264 -89 -314 -101 -337 -78 -9 9 -12 176 -12 690 l0 679 25 25 c14 14 31 22
38 18 6 -4 83 -52 169 -108z"/>
</g>
</svg>
