<?xml version="1.0" encoding="utf-8"?>
<svg version="1.1" id="Layer_1" xmlns="http://www.w3.org/2000/svg" xmlns:xlink="http://www.w3.org/1999/xlink" x="0px" y="0px"
	 viewBox="0 0 240 240" style="enable-background:new 0 0 240 240;" xml:space="preserve">
<style type="text/css">
	.st0{fill-rule:evenodd;clip-rule:evenodd;fill:#DF691A;}
	.st1{fill-rule:evenodd;clip-rule:evenodd;fill:#FFFFFF;}
</style>
<g>
	<g>
		<path class="st0" d="M119.8,239.9c66,0,119.8-53.8,119.8-119.8c0-66-53.8-119.8-119.8-119.8C53.8,0.3,0,54.1,0,120.1
			C0,186.1,53.8,239.9,119.8,239.9z"/>
		<path class="st1" d="M181.8,66.3c3.2,0,5.9,2.6,5.9,5.9v98.5c0,7.3-5.8,7-10.6,3.9l-23.8-15.4v-41.6c0,0-2.3-3.6-6.2-1.4
			c-27.2,15.9-26.7,15.9-54,0c-3.9-2.3-6.2,1.4-6.2,1.4v41.6L62,175.3c-4.8,3.1-9.5,1.1-9.5-4.6V72.1c0-3.2,2.6-5.9,5.9-5.9
			C129.2,93.1,111,93.1,181.8,66.3z"/>
		<path class="st1" d="M146.6,174.9v-44c0-1.4-1.4-3.3-2.6-2.6l-11,7.1V157c0,0-0.9,1.4-2.4,0.5c-10.7-6.2-10.5-6.2-21.2,0
			c-1.5,0.9-2.4-0.5-2.4-0.5v-21.7l-10.9-7.1c-1.2-0.8-2.6,1.2-2.6,2.6v44c0,2.9,2.2,2.4,3.9,1.8c25-8.4,19.3-8.7,44.3-0.4
			C143.5,176.9,146.6,178.4,146.6,174.9z"/>
	</g>
</g>
</svg>
